<svg height="512" viewBox="0 0 57 57" width="512" xmlns="http://www.w3.org/2000/svg"><g id="018---Sign-Language-K"><path id="Shape" d="m31 15.06v-12.06c0-1.65685425-1.3431458-3-3-3s-3 1.34314575-3 3v10.36c5.65 1.55 5.12 1.39 6 1.7z"/><path id="Shape" d="m11 33c1.6568542 0 3-1.3431458 3-3v-12c0-1.6568542-1.3431458-3-3-3-1.65685425 0-3 1.3431458-3 3v12c0 1.6568542 1.34314575 3 3 3z"/><path id="Shape" d="m3 33c1.65685425 0 3-1.3431458 3-3v-10c0-1.6568542-1.34314575-3-3-3s-3 1.3431458-3 3v10c0 1.6568542 1.34314575 3 3 3z"/><path id="Shape" d="m37.42 26.39c-.3596194-4.6308393-3.5891923-8.5367416-8.07-9.76l-5.56-1.52c-1.0342839-.2822398-2.1405748.0087437-2.9021436.7633399s-1.0627151 1.858164-.79 2.895c.2727151 1.0368361 1.0778597 1.8494203 2.1121436 2.1316601l5.56 1.52c2.035384.5545856 3.5037092 2.3269783 3.67 4.43.32 4.13.39 4.08 0 4.49-.3687071.4088105-.8896217.647563-1.44.66-4.418278 0-8 3.581722-8 8v3c0 .5522847-.4477153 1-1 1s-1-.4477153-1-1v-3c-.0027656-5.4002554 4.2825095-9.8271925 9.68-10l-.24-3c-.0972799-1.259267-.9728434-2.3227368-2.19-2.66l-5.56-1.52c-1.7978209-.4930981-3.1720236-1.9454182-3.5650712-3.7677297-.3930476-1.8223116.2603395-3.711955 1.6950712-4.9022703l-1.61-9.64c-.2761424-1.63476286-1.8252371-2.73614237-3.46-2.46s-2.7361424 1.82523714-2.46 3.46l1.38 8.29c1.4422629.9108836 2.3206282 2.494203 2.33 4.2v12c0 2.152152-1.3771505 4.0628463-3.4188612 4.7434165s-4.28984758-.0216949-5.5811388-1.7434165c-.78385957 1.0768936-1.97011195 1.7907883-3.28869188 1.9791568-1.31857993.1883686-2.65727271-.1648196-3.71130812-.9791568v4c0 5.5228475 4.4771525 10 10 10 .5522847 0 1 .4477153 1 1s-.4477153 1-1 1c-1.7279398.0015079-3.43501805-.3774635-5-1.11v6.11c0 .5522847.44771525 1 1 1h24c.5522847 0 1-.4477153 1-1v-5c-.33 0-.66 0-1 0-.5522847 0-1-.4477153-1-1s.4477153-1 1-1c4.418278 0 8-3.581722 8-8 0-7.82.12-4.73-.58-13.61zm-28.42 27.61h-1c-.55228475 0-1-.4477153-1-1s.44771525-1 1-1h1c.55228475 0 1 .4477153 1 1s-.44771525 1-1 1zm19 0h-15c-.5522847 0-1-.4477153-1-1s.4477153-1 1-1h15c.5522847 0 1 .4477153 1 1s-.4477153 1-1 1z"/><path id="Shape" d="m56.15 53.36-7.94-5.56 8.13-7.31c.5358984-.4787359.7756864-1.2070045.6290381-1.910474-.1466482-.7034696-.6574534-1.2752664-1.34-1.5-.6825466-.2247337-1.4331397-.0682619-1.9690381.410474l-6.66 6v-4.49c0-1.1045695-.8954305-2-2-2s-2 .8954305-2 2v16c0 1.1045695.8954305 2 2 2s2-.8954305 2-2v-3.16l6.85 4.8c.3372066.2353747.7387721.3610822 1.15.36.8744095.0023097 1.6489464-.5636895 1.9123691-1.3974795.2634227-.8337901-.0453477-1.742043-.7623691-2.2425205z"/></g></svg>